# xmcd CD database file
#
# Track frame offsets:
#	187
#	11730
#	29150
#	42560
#	57570
#	70285
#	84445
#	96942
#	111785
#	129970
#
# Disc length: 1920 seconds
#
# Revision: 3
# Processed by: cddbd v1.5PL3 Copyright (c) Steve Scherf et al.
# Submitted via: CDex 1.51
#
DISCID=8c077e0a
DTITLE=Martina McBride - The Time Has Come
DYEAR=1992
DGENRE=Country
TTITLE0=The Time Has Come
TTITLE1=That's Me
TTITLE2=True Blue Fool
TTITLE3=Losing You Feels Good
TTITLE4=Walk That Line
TTITLE5=Cheap Whiskey
TTITLE6=I Can't Sleep
TTITLE7=A Woman Knows
TTITLE8=The Rope
TTITLE9=When You Are Old
EXTD=YEAR: 1992
EXTT0=
EXTT1=
EXTT2=
EXTT3=
EXTT4=
EXTT5=
EXTT6=
EXTT7=
EXTT8=
EXTT9=
PLAYORDER=
